<?xml version="1.0" standalone="no"?>
<!DOCTYPE svg PUBLIC "-//W3C//DTD SVG 20010904//EN"
 "http://www.w3.org/TR/2001/REC-SVG-20010904/DTD/svg10.dtd">
<svg version="1.0" xmlns="http://www.w3.org/2000/svg"
 width="1024.000000pt" height="1024.000000pt" viewBox="0 0 1024.000000 1024.000000"
 preserveAspectRatio="xMidYMid meet">

<g transform="translate(0.000000,1024.000000) scale(0.100000,-0.100000)"
fill="#000000" stroke="none">
<path d="M5215 8850 c-17 -4 -39 -11 -49 -17 -14 -7 -26 -7 -45 3 -14 8 -50
14 -78 14 -46 0 -58 -4 -92 -35 -49 -44 -67 -105 -50 -168 11 -40 35 -79 104
-165 27 -34 35 -53 35 -84 0 -94 -53 -143 -220 -203 -142 -51 -213 -88 -259
-136 -37 -37 -71 -110 -71 -151 0 -10 -37 -55 -81 -100 -108 -108 -144 -180
-144 -288 0 -87 21 -140 87 -214 37 -43 45 -64 103 -265 103 -358 113 -386
141 -414 119 -119 698 -147 966 -47 95 35 100 43 199 375 49 163 89 299 89
301 0 2 23 29 51 60 61 68 79 107 79 174 0 51 -21 105 -62 160 -10 15 -25 56
-33 92 -29 138 -115 248 -243 310 -66 31 -70 36 -85 84 -35 106 -93 169 -220
239 -38 21 -71 44 -74 51 -3 8 14 35 37 61 70 80 100 140 100 203 0 107 -85
181 -185 160z m-119 -109 c11 -10 26 -33 34 -50 16 -39 24 -39 40 -1 14 35 55
70 79 70 27 0 61 -38 61 -68 0 -35 -44 -104 -104 -161 l-46 -45 -27 24 c-113
99 -143 137 -143 182 0 60 64 89 106 49z m159 -418 c114 -68 179 -132 195
-193 29 -106 -39 -218 -171 -286 -71 -35 -107 -48 -294 -99 -187 -52 -269 -83
-344 -133 -47 -32 -111 -102 -111 -123 0 -4 35 12 78 37 107 60 213 97 410
143 92 21 201 52 243 68 130 50 228 127 267 210 20 41 39 39 116 -12 124 -82
172 -226 118 -348 -11 -26 -44 -71 -71 -100 -28 -30 -51 -57 -51 -60 0 -10 80
21 127 48 23 14 52 39 64 57 l23 32 14 -34 c25 -61 -10 -140 -77 -175 -53 -27
-147 -37 -226 -24 -67 10 -78 10 -137 -11 -80 -27 -211 -36 -306 -20 -40 6
-72 15 -72 18 1 8 61 36 244 113 172 72 221 101 267 163 33 43 43 68 66 161 3
11 -24 -12 -61 -51 -86 -94 -132 -122 -333 -203 -92 -38 -204 -84 -248 -104
-127 -57 -193 -72 -335 -72 -114 0 -130 2 -175 25 -31 16 -61 41 -80 68 -78
113 -2 288 162 370 61 31 232 77 328 88 48 6 54 9 39 18 -12 6 -80 11 -171 11
-151 0 -153 0 -153 22 0 32 55 90 113 120 28 14 93 40 144 59 182 66 242 113
270 214 9 33 20 60 24 60 4 0 51 -26 104 -57z m-679 -1104 c89 -16 92 -17 108
-62 20 -56 110 -487 102 -494 -3 -3 -29 3 -58 13 -35 13 -59 29 -73 50 -18 27
-145 458 -145 492 0 14 -6 14 66 1z m1164 6 c0 -26 -136 -478 -152 -502 -15
-26 -32 -37 -75 -49 -30 -9 -56 -14 -59 -12 -4 5 91 456 107 505 12 37 24 43
104 53 33 4 63 8 68 9 4 0 7 -1 7 -4z m-824 -36 c44 -14 52 -41 59 -199 3 -74
10 -186 16 -249 5 -63 8 -115 6 -117 -5 -5 -152 17 -160 25 -4 4 -16 83 -28
177 -11 93 -26 214 -33 269 -7 55 -12 103 -10 106 4 8 113 -1 150 -12z m564 4
c0 -34 -61 -499 -69 -523 -9 -28 -36 -37 -115 -39 l-49 -1 6 78 c4 42 12 160
18 262 13 216 14 218 105 230 96 12 104 12 104 -7z m-271 -17 c8 -10 10 -60 7
-167 -2 -85 -5 -207 -5 -271 l-1 -118 -84 0 -83 0 -7 38 c-8 48 -8 495 0 516
8 22 156 23 173 2z"/>
<path d="M5225 8168 c-35 -58 -92 -108 -156 -137 l-44 -21 40 -1 c67 -3 89 1
128 27 56 36 94 132 69 171 -4 7 -18 -8 -37 -39z"/>
<path d="M4170 8166 c-258 -82 -458 -172 -690 -309 -757 -448 -1312 -1235
-1489 -2112 -59 -290 -78 -668 -51 -971 49 -531 247 -1060 565 -1513 106 -151
187 -247 343 -405 481 -488 1112 -813 1782 -920 333 -54 735 -50 1060 10 1031
189 1927 893 2349 1845 172 388 254 757 268 1199 14 474 -63 914 -233 1328
-104 252 -300 585 -474 802 -107 133 -374 401 -508 508 -288 231 -609 406
-947 517 -187 62 -181 61 -194 23 -16 -44 -14 -58 8 -58 33 0 303 -97 430
-155 339 -153 607 -342 897 -630 174 -173 270 -286 386 -455 593 -863 713
-1970 321 -2950 -152 -379 -376 -715 -677 -1015 -362 -361 -757 -606 -1236
-765 -470 -157 -965 -193 -1475 -109 -499 83 -1001 310 -1416 640 -407 324
-726 742 -927 1214 -185 434 -259 850 -240 1345 43 1134 712 2171 1723 2669
162 80 329 147 465 187 52 15 96 28 97 29 4 1 -22 85 -27 84 -3 0 -52 -15
-110 -33z"/>
<path d="M6574 6740 c-101 -20 -222 -109 -325 -240 -186 -236 -341 -579 -474
-1049 -37 -131 -47 -148 -174 -300 -96 -115 -201 -146 -201 -60 0 47 93 320
205 604 25 62 45 125 45 139 0 38 -30 49 -108 40 -83 -9 -97 -23 -141 -134
-19 -47 -47 -105 -62 -130 -51 -82 -185 -180 -245 -180 l-31 0 5 73 c8 130
-34 244 -109 294 -141 93 -384 -18 -540 -248 -94 -138 -143 -281 -143 -419 0
-102 14 -155 57 -212 49 -64 114 -93 207 -93 69 0 85 4 154 39 135 66 248 198
318 367 17 43 37 79 42 79 6 0 60 25 120 55 59 30 106 49 103 42 -38 -101 -99
-313 -104 -360 -10 -115 40 -177 143 -177 87 0 179 54 302 176 100 101 102
102 102 71 1 -95 45 -177 109 -204 104 -44 274 42 401 201 l45 56 11 -42 c36
-142 120 -208 262 -208 148 0 235 40 413 192 l56 47 16 -52 c36 -115 126 -177
257 -177 136 0 256 50 389 162 91 77 131 126 134 163 4 51 -27 42 -108 -32
-164 -152 -317 -200 -403 -128 -41 34 -67 146 -44 182 5 7 44 22 88 34 183 47
331 155 396 287 29 58 33 76 33 147 0 68 -4 85 -23 113 -38 52 -75 67 -172 67
-77 0 -92 -3 -153 -33 -167 -82 -323 -299 -392 -544 -14 -50 -26 -66 -100
-137 -108 -102 -175 -136 -267 -136 -51 0 -73 5 -95 21 -95 69 -87 262 20 468
75 145 204 256 252 216 21 -17 19 -31 -15 -117 -32 -79 -32 -108 0 -118 29 -9
116 33 154 76 94 103 56 235 -80 275 -142 41 -311 -42 -455 -223 -58 -72 -140
-226 -155 -288 -8 -35 -89 -159 -143 -218 -44 -49 -117 -97 -147 -97 -13 0
-32 12 -43 26 -36 46 -25 182 26 339 14 43 44 78 222 260 271 276 369 399 474
595 63 118 91 208 91 300 1 63 -3 80 -22 107 -34 47 -89 60 -178 43z m54 -142
c7 -7 12 -36 12 -66 0 -120 -107 -310 -309 -552 -88 -105 -264 -300 -268 -297
-3 4 82 234 131 350 130 313 310 577 394 577 15 0 33 -5 40 -12z m990 -828 c2
-24 -4 -64 -14 -89 -25 -68 -98 -174 -147 -214 -47 -38 -175 -112 -182 -105
-7 7 23 101 55 172 79 178 201 310 265 286 15 -5 21 -18 23 -50z m-2710 -86
c32 -36 29 -70 -8 -89 -39 -20 -77 -79 -86 -130 -8 -54 11 -119 41 -143 l25
-20 -20 -56 c-63 -185 -196 -328 -278 -300 -47 16 -72 82 -72 189 0 243 138
517 288 571 47 17 81 10 110 -22z"/>
<path d="M3315 6633 c-219 -31 -483 -173 -637 -343 -117 -129 -174 -253 -185
-400 -16 -222 128 -344 260 -219 l42 41 -37 19 c-48 25 -70 68 -76 150 -24
335 378 667 780 643 154 -9 278 -58 378 -150 74 -69 140 -196 164 -316 20 -97
20 -276 1 -393 -74 -453 -325 -759 -693 -846 -72 -18 -109 -20 -217 -16 -88 3
-145 10 -177 22 -27 9 -48 19 -48 21 0 2 30 44 68 93 139 184 214 347 412 901
96 269 171 416 286 558 33 40 26 49 -24 34 -100 -30 -244 -144 -332 -263 -107
-144 -186 -319 -325 -714 -79 -224 -172 -434 -239 -537 l-37 -58 -69 0 c-214
0 -339 -96 -241 -184 16 -15 41 -20 101 -24 98 -6 158 8 234 55 58 36 60 36
105 23 126 -35 183 -43 316 -43 157 -1 246 11 367 49 398 124 669 433 764 869
23 105 23 359 1 461 -66 299 -277 501 -585 560 -68 13 -283 17 -357 7z"/>
<path d="M7480 4541 c-18 -24 -54 -84 -80 -134 -25 -51 -61 -115 -79 -144 -30
-46 -33 -59 -31 -115 4 -106 2 -117 -35 -181 -23 -39 -34 -51 -28 -32 8 30 8
70 1 291 -2 83 -6 107 -14 95 -26 -40 -83 -182 -94 -234 -10 -51 -9 -66 11
-140 37 -138 36 -144 -11 -210 -44 -61 -58 -69 -40 -23 15 40 12 127 -6 208
-10 43 -15 99 -12 144 2 41 2 74 1 74 -8 0 -66 -129 -88 -194 -30 -90 -31
-141 -5 -265 11 -52 20 -99 20 -106 0 -13 -121 -157 -127 -151 -3 2 6 24 19
48 24 46 28 124 19 326 l-5 83 -29 -47 c-98 -158 -115 -226 -99 -393 l12 -116
-63 -58 c-34 -31 -75 -67 -90 -78 -28 -21 -27 -19 8 30 56 78 66 123 63 288
-2 78 -6 139 -9 135 -4 -4 -34 -49 -68 -100 -77 -119 -91 -165 -91 -307 0 -97
-3 -116 -20 -137 -18 -24 -191 -148 -205 -148 -4 0 18 22 48 50 69 63 93 119
108 245 6 54 19 124 29 156 10 33 14 59 10 59 -4 0 -34 -32 -66 -72 -32 -39
-78 -94 -102 -122 -56 -62 -87 -129 -111 -238 -29 -134 -31 -136 -191 -208
-248 -112 -476 -186 -725 -235 l-140 -28 -90 17 c-139 26 -389 91 -531 137
-163 53 -382 145 -412 173 -14 14 -31 55 -47 116 -34 128 -65 188 -138 268
-34 37 -79 88 -101 115 -38 47 -65 63 -51 30 16 -37 34 -116 45 -191 17 -128
36 -170 104 -236 70 -68 63 -65 -67 24 -108 74 -107 71 -107 214 -1 111 -19
160 -108 294 -34 50 -64 92 -65 92 -1 0 -2 -64 -1 -143 1 -156 9 -187 75 -284
35 -52 33 -51 -78 46 l-73 63 6 127 c7 149 -3 185 -85 321 l-51 85 0 -47 c0
-26 -5 -79 -12 -118 -14 -82 -4 -147 37 -238 l25 -57 -71 74 c-81 83 -76 58
-48 244 16 108 6 165 -50 281 -64 130 -66 131 -67 24 0 -51 -4 -133 -8 -183
-7 -78 -5 -98 12 -147 11 -32 19 -58 17 -58 -2 0 -26 31 -54 69 -57 77 -62
101 -35 190 22 74 20 166 -5 229 -25 62 -91 195 -95 191 -2 -2 0 -26 3 -54 3
-27 3 -79 -1 -115 -10 -97 -9 -189 3 -211 6 -11 8 -25 6 -32 -2 -7 -18 13 -35
43 -28 48 -32 64 -32 128 0 80 -14 124 -58 180 -15 21 -42 66 -60 102 -32 66
-96 150 -106 140 -3 -3 15 -64 39 -135 25 -70 45 -144 45 -164 0 -45 39 -128
75 -161 15 -14 38 -47 52 -73 l24 -49 -72 69 c-141 133 -246 238 -267 268
l-22 30 21 -60 c41 -116 99 -222 146 -265 42 -40 124 -83 204 -109 27 -9 46
-26 73 -66 40 -60 39 -65 -5 -34 -16 11 -80 41 -142 65 -114 46 -154 70 -207
127 -42 45 -39 16 8 -63 48 -83 156 -191 226 -225 30 -14 94 -33 143 -41 99
-17 117 -27 182 -103 l46 -54 -40 25 c-50 31 -120 54 -206 68 -73 11 -141 33
-176 55 -13 8 -35 23 -50 33 l-28 17 22 -30 c31 -44 120 -132 180 -177 75 -57
139 -78 279 -90 l122 -11 71 -59 c39 -33 71 -63 71 -68 0 -5 -26 5 -58 21 -72
36 -139 49 -251 49 -56 1 -104 7 -138 19 -39 13 -50 14 -42 4 27 -32 164 -126
226 -156 68 -32 69 -32 228 -32 l160 0 73 -54 c40 -30 71 -55 69 -58 -2 -2
-22 3 -45 11 -66 23 -181 36 -273 29 -64 -4 -99 -2 -143 11 -32 10 -60 16 -62
13 -6 -6 146 -102 221 -140 141 -70 241 -83 357 -47 34 11 71 20 80 20 10 0
79 -30 155 -66 76 -37 188 -86 249 -110 119 -47 461 -148 538 -159 57 -9 66
-20 23 -29 -61 -13 -382 -65 -442 -72 l-60 -7 61 -29 60 -28 140 19 c76 11
195 32 264 46 188 40 204 41 326 11 147 -35 337 -67 404 -69 40 -1 67 5 100
23 l45 24 -40 7 c-22 4 -133 22 -247 41 -115 18 -208 36 -208 39 0 3 46 16
103 29 231 52 437 129 705 262 l184 92 81 -17 c135 -28 205 -19 331 45 115 58
292 182 220 154 -44 -17 -131 -27 -183 -21 -80 9 -191 -10 -283 -50 -38 -16
-14 12 55 65 l72 55 145 1 c126 0 153 4 203 23 58 23 189 114 237 165 l24 27
-39 -17 c-22 -9 -89 -20 -150 -25 -124 -11 -199 -29 -264 -65 -24 -13 -45 -23
-47 -21 -2 2 28 34 66 72 l69 68 101 8 c171 13 252 49 356 155 50 51 114 135
114 149 0 4 -14 -5 -31 -20 -50 -41 -119 -72 -190 -85 -90 -15 -149 -36 -203
-70 -25 -16 -46 -26 -46 -22 0 5 23 33 50 64 45 50 57 58 108 69 84 17 191 58
239 90 71 49 158 165 198 264 l17 40 -54 -52 c-54 -52 -102 -80 -215 -126 -35
-14 -77 -35 -94 -47 -16 -12 -32 -20 -35 -18 -2 3 10 27 28 54 33 50 51 61
166 110 105 45 161 125 226 318 14 43 26 81 26 84 0 3 -14 -16 -31 -44 -28
-45 -288 -308 -297 -300 -7 7 38 85 68 118 33 36 60 111 60 167 0 19 21 95 46
169 25 73 44 138 42 144 -2 6 -19 -8 -38 -31z"/>
<path d="M4153 4361 c-17 -11 -48 -45 -67 -76 -40 -62 -86 -95 -131 -95 -17 0
-76 12 -130 26 -129 33 -206 31 -258 -9 -50 -38 -66 -91 -42 -140 38 -81 144
-105 298 -68 127 30 178 28 220 -8 18 -17 39 -48 47 -70 7 -22 26 -53 42 -68
l29 -28 979 0 980 0 24 25 c14 14 38 50 53 79 50 98 93 110 253 72 140 -34
219 -24 277 34 43 43 46 98 7 145 -57 67 -127 76 -284 35 -52 -14 -108 -25
-125 -25 -45 0 -90 32 -129 95 -67 104 36 95 -1056 95 -928 0 -956 -1 -987
-19z m1914 -100 c33 -23 43 -55 43 -139 -1 -81 -16 -140 -46 -173 -17 -19 -40
-19 -924 -19 -858 0 -908 1 -923 18 -33 36 -47 90 -47 176 0 76 3 88 25 115
14 16 38 32 53 34 15 2 425 4 912 3 754 -1 888 -3 907 -15z"/>
<path d="M4250 4019 c0 -4 7 -13 17 -20 24 -21 1707 -23 1741 -2 12 7 22 17
22 21 0 4 -400 7 -890 7 -489 0 -890 -3 -890 -6z"/>
</g>
</svg>
